<?xml version="1.0" encoding="UTF-8"?>
<svg id="Layer_1" xmlns="http://www.w3.org/2000/svg" version="1.1" viewBox="0 0 937.3 313.3">
  <!-- Generator: Adobe Illustrator 29.3.1, SVG Export Plug-In . SVG Version: 2.1.0 Build 151)  -->
  <defs>
    <style>
      .st0 {
        fill: #1362a8;
      }
    </style>
  </defs>
  <polygon class="st0" points="745.3 39.6 701.9 99.6 625.2 82.4 664.6 145.2 621.1 177.3 693.6 229.1 691.5 289.5 757.8 244.6 828.2 280.8 853 220.4 906.9 203.2 866.5 151.4 873.8 82.4 774.3 82.4 745.3 39.6"/>
  <polygon class="st0" points="126 93.8 51.6 67.1 72.5 135.6 31.9 172.8 67.9 212.3 67.9 280.8 140.5 229.7 184.1 280.8 200.3 203.4 251.4 203.4 207.3 151.9 256.7 119.3 184.1 94.9 184.1 42.7 126 93.8"/>
  <polygon class="st0" points="379.6 114 322.9 102.2 347.3 165.8 298.4 183.5 356.1 232.4 342.4 284.3 420.7 256.9 459.9 289.5 494.1 256.9 572.4 256.9 523.5 203 583.2 183.5 531.3 142.4 532.3 99.3 477.8 93.8 439.3 42.5 379.6 114"/>
</svg>